<svg width="44" height="44" viewBox="0 0 44 44" fill="none" xmlns="http://www.w3.org/2000/svg">
<rect width="44" height="44" rx="12" fill="white"/>
<g clip-path="url(#clip0_101_282)">
<path d="M39.7192 24.5632C39.4381 25.0384 38.9852 25.3778 38.4463 25.52C37.9041 25.6622 37.3388 25.5879 36.8528 25.3131L34.3104 23.878C33.6657 23.516 32.8954 23.516 32.254 23.878C31.6093 24.24 31.2258 24.8929 31.2258 25.6202V35.9475C31.2258 36.5067 31.001 37.0303 30.5877 37.4214C30.1778 37.8125 29.6554 38.0226 29.0603 38C27.9396 37.9677 27.0271 37.0012 27.0271 35.8473V32.463C27.0271 31.7358 26.6436 31.0861 25.9989 30.7208C25.3542 30.3588 24.5872 30.3556 23.9425 30.7208L13.7664 36.4647C13.2705 36.7459 12.6919 36.8137 12.1431 36.6618C11.5943 36.5099 11.138 36.1511 10.8669 35.6598C10.3347 34.6933 10.7347 33.4392 11.7563 32.8606L14.7251 31.1863C15.3698 30.8242 15.7533 30.1713 15.7533 29.444C15.7533 28.7168 15.3698 28.0671 14.7251 27.7018L5.05152 22.2424C4.55561 21.9612 4.20516 21.5087 4.06631 20.9657C3.92745 20.4226 4.01671 19.8602 4.31757 19.3818C4.90936 18.4477 6.21857 18.16 7.24346 18.7354L9.69327 20.1188C10.338 20.4808 11.105 20.4808 11.7497 20.1188C12.3943 19.7568 12.7778 19.1038 12.7778 18.3766V8.05253C12.7778 6.92121 13.7201 6 14.8772 6C16.0343 6 16.9766 6.92121 16.9766 8.05253V11.5402C16.9766 12.2675 17.3601 12.9172 18.0048 13.2824C18.6495 13.6444 19.4165 13.6444 20.0612 13.2824L30.2373 7.53859C30.7332 7.25737 31.3118 7.1895 31.8606 7.34141C32.4127 7.49333 32.8656 7.85212 33.1367 8.34343C33.669 9.3099 33.269 10.564 32.2474 11.1426L29.2785 12.817C28.6339 13.179 28.2503 13.8319 28.2503 14.5592C28.2503 15.2865 28.6339 15.9362 29.2785 16.3014L38.9488 21.7608C39.4348 22.0356 39.782 22.4784 39.9274 23.0053C40.0729 23.5321 39.9969 24.0881 39.7159 24.5632H39.7192Z" fill="#A51BFB"/>
</g>
<defs>
<clipPath id="clip0_101_282">
<rect width="36" height="32" fill="white" transform="translate(4 6)"/>
</clipPath>
</defs>
</svg>
